<svg xmlns="http://www.w3.org/2000/svg" width="512" height="512" viewBox="0 0 1024 1024" fill="none">
  <defs>
    <radialGradient id="bg" cx="0" cy="0" r="1" gradientUnits="userSpaceOnUse" gradientTransform="translate(450.6 389.1) rotate(48) scale(901.1)">
      <stop offset="0" stop-color="#4A1420"/>
      <stop offset="0.58" stop-color="#2D0B15"/>
      <stop offset="1" stop-color="#12050A"/>
    </radialGradient>
    <radialGradient id="ember" cx="0" cy="0" r="1" gradientUnits="userSpaceOnUse" gradientTransform="translate(716.8 286.7) rotate(90) scale(307.2)">
      <stop offset="0" stop-color="#7B1C2A" stop-opacity=".95"/>
      <stop offset="1" stop-color="#7B1C2A" stop-opacity="0"/>
    </radialGradient>
    <linearGradient id="letter" x1="256.0" y1="184.3" x2="716.8" y2="798.7" gradientUnits="userSpaceOnUse">
      <stop offset="0" stop-color="#FFFDFC"/>
      <stop offset="0.55" stop-color="#F3EFEA"/>
      <stop offset="1" stop-color="#E7DED6"/>
    </linearGradient>
    <filter id="shadow" x="-20%" y="-20%" width="140%" height="140%">
      <feGaussianBlur in="SourceAlpha" stdDeviation="10"/>
      <feOffset dx="0" dy="10" result="off"/>
      <feColorMatrix in="off" type="matrix" values="0 0 0 0 0
                                                      0 0 0 0 0
                                                      0 0 0 0 0
                                                      0 0 0 .28 0"/>
      <feMerge><feMergeNode/><feMergeNode in="SourceGraphic"/></feMerge>
    </filter>
  </defs>
  <rect x="30" y="30" width="964" height="964" rx="220" fill="url(#bg)"/>
  <rect x="30" y="30" width="964" height="964" rx="220" fill="url(#ember)"/>
  <ellipse cx="512.0" cy="245.8" rx="317.4" ry="143.4" fill="#FFFFFF" opacity=".07"/>
  <rect x="68" y="68" width="888" height="888" rx="196" stroke="#FFFFFF" stroke-opacity=".18" stroke-width="10"/>
  <path d="M 406.960 789.189 Q 406.960 809.226 392.102 815.769 Q 377.380 822.312 343.303 825.038 L 343.303 846.848 L 580.619 846.848 Q 786.447 846.848 786.447 719.398 Q 786.447 688.047 772.407 662.693 Q 758.503 637.476 742.419 623.436 Q 726.334 609.532 697.437 597.264 Q 668.675 585.133 656.407 581.588 Q 644.276 578.044 621.648 572.865 Q 687.895 551.055 714.475 522.294 Q 741.056 493.532 741.056 442.825 Q 741.056 359.130 672.083 311.149 Q 603.246 263.168 483.702 263.168 L 221.169 263.168 L 221.169 284.978 Q 253.474 289.340 267.787 302.016 Q 282.236 314.693 290.960 347.817 L 397.418 739.436 Q 406.960 773.513 406.960 789.189 Z M 464.619 291.112 Q 528.276 291.112 567.942 340.320 Q 607.608 389.664 607.608 462.999 Q 607.608 493.532 598.884 512.616 Q 590.160 531.835 570.123 541.377 Q 550.085 551.055 530.457 554.054 Q 510.828 557.189 476.750 558.007 L 419.228 345.227 Q 414.866 326.007 414.866 319.873 Q 414.866 291.112 464.619 291.112 Z M 483.702 584.178 Q 527.321 585.950 556.083 592.084 Q 584.981 598.218 609.789 613.485 Q 634.734 628.752 646.457 657.513 Q 658.179 686.275 658.179 730.712 Q 658.179 818.904 582.391 818.904 Q 561.399 818.904 552.266 811.407 Q 543.133 804.047 537.000 780.465 L 483.702 584.178 Z" fill="#000000" opacity=".20"/>
  <path d="M 384.432 756.421 Q 384.432 776.458 369.574 783.001 Q 354.852 789.544 320.775 792.270 L 320.775 814.080 L 558.091 814.080 Q 763.919 814.080 763.919 686.630 Q 763.919 655.279 749.879 629.925 Q 735.975 604.708 719.891 590.668 Q 703.806 576.764 674.909 564.496 Q 646.147 552.365 633.879 548.820 Q 621.748 545.276 599.120 540.097 Q 665.367 518.287 691.947 489.526 Q 718.528 460.764 718.528 410.057 Q 718.528 326.362 649.555 278.381 Q 580.718 230.400 461.174 230.400 L 198.641 230.400 L 198.641 252.210 Q 230.946 256.572 245.259 269.248 Q 259.708 281.925 268.432 315.049 L 374.890 706.668 Q 384.432 740.745 384.432 756.421 Z M 442.091 258.344 Q 505.748 258.344 545.414 307.552 Q 585.080 356.896 585.080 430.231 Q 585.080 460.764 576.356 479.848 Q 567.632 499.067 547.595 508.609 Q 527.557 518.287 507.929 521.286 Q 488.300 524.421 454.222 525.239 L 396.700 312.459 Q 392.338 293.239 392.338 287.105 Q 392.338 258.344 442.091 258.344 Z M 461.174 551.410 Q 504.793 553.182 533.555 559.316 Q 562.453 565.450 587.261 580.717 Q 612.206 595.984 623.929 624.745 Q 635.651 653.507 635.651 697.944 Q 635.651 786.136 559.863 786.136 Q 538.871 786.136 529.738 778.639 Q 520.605 771.279 514.472 747.697 L 461.174 551.410 Z" fill="url(#letter)" filter="url(#shadow)"/>
  <path d="M 378.849 741.973 Q 378.849 761.850 364.110 768.340 Q 349.507 774.831 315.702 777.535 L 315.702 799.171 L 551.119 799.171 Q 755.301 799.171 755.301 672.740 Q 755.301 641.640 741.373 616.489 Q 727.581 591.473 711.625 577.546 Q 695.669 563.753 667.002 551.583 Q 638.471 539.549 626.301 536.033 Q 614.267 532.517 591.820 527.379 Q 657.537 505.744 683.905 477.213 Q 710.273 448.681 710.273 398.380 Q 710.273 315.355 641.852 267.757 Q 573.566 220.160 454.978 220.160 L 194.545 220.160 L 194.545 241.795 Q 226.592 246.122 240.790 258.698 Q 255.123 271.273 263.777 304.131 L 369.384 692.617 Q 378.849 726.422 378.849 741.973 Z M 436.047 247.880 Q 499.195 247.880 538.544 296.694 Q 577.893 345.644 577.893 418.392 Q 577.893 448.681 569.239 467.612 Q 560.585 486.678 540.707 496.143 Q 520.830 505.744 501.358 508.719 Q 481.887 511.829 448.082 512.640 L 391.019 301.562 Q 386.692 282.496 386.692 276.411 Q 386.692 247.880 436.047 247.880 Z M 454.978 538.602 Q 498.248 540.360 526.780 546.445 Q 555.446 552.530 580.056 567.675 Q 604.801 582.819 616.430 611.350 Q 628.059 639.882 628.059 683.963 Q 628.059 771.451 552.877 771.451 Q 532.053 771.451 522.993 764.013 Q 513.934 756.712 507.849 733.319 L 454.978 538.602 Z" fill="#FFFFFF" opacity=".10"/>
  <circle cx="225.3" cy="204.8" r="6" fill="#FFB46C" opacity=".65"/>
  <circle cx="798.7" cy="184.3" r="4" fill="#FF8451" opacity=".55"/>
  <circle cx="757.8" cy="788.5" r="5" fill="#FFB46C" opacity=".45"/>
</svg>